<svg width="1000" height="1000" viewBox="0 0 1000 1000" fill="none" xmlns="http://www.w3.org/2000/svg">
<rect x="5.5" y="5.5" width="989" height="989" rx="494.5" fill="#E9E8D1"/>
<rect x="5.5" y="5.5" width="989" height="989" rx="494.5" stroke="#A59560" stroke-width="11"/>
<path d="M290.089 263.287C313.058 168.712 398.335 98.5 500 98.5C619.28 98.5 716 195.148 716 314.4C716 346.667 703.789 381.853 687.56 414.649C675.5 439.02 660.492 463.503 644.483 486.535C642.907 479.724 640.463 474.409 638.946 471.341C636.009 465.399 632.404 459.869 628.963 455.098C624.362 448.717 618.811 441.995 612.664 435.154C622.212 420.218 630.927 405.086 638.266 390.256C653.084 360.31 661 334.159 661 314.4C661 225.552 588.932 153.5 500 153.5C428.278 153.5 367.526 200.364 346.698 265.107C336.068 263.12 325.42 262 314.9 262C306.52 262 298.243 262.437 290.089 263.287Z" fill="#A08B46"/>
<path d="M291.167 361.019C298.883 359.693 306.813 359 314.9 359L315.606 359.005C324.77 359.124 336.735 361.54 351.166 366.635C354.162 374.19 357.69 382.082 361.734 390.256C376.279 419.647 396.228 450.23 417.357 478.108C438.473 505.968 460.259 530.459 478.082 547.723C479.751 549.339 481.368 550.876 482.932 552.334C477.432 556.789 471.734 561.268 465.874 565.721C456.856 572.574 447.586 579.267 438.205 585.66C418.463 566.343 395.498 540.321 373.525 511.33C350.966 481.565 328.944 448 312.44 414.649C303.797 397.183 296.293 379.039 291.167 361.019Z" fill="#A08B46"/>
<path d="M736.713 290.089C831.289 313.058 901.5 398.335 901.5 500C901.5 619.28 804.852 716 685.6 716C653.333 716 618.147 703.789 585.351 687.56C560.98 675.5 536.497 660.492 513.465 644.483C520.276 642.907 525.591 640.463 528.659 638.946C534.601 636.009 540.131 632.404 544.902 628.963C551.283 624.362 558.005 618.811 564.846 612.664C579.782 622.212 594.914 630.927 609.744 638.266C639.69 653.084 665.841 661 685.6 661C774.448 661 846.5 588.932 846.5 500C846.5 428.278 799.636 367.526 734.893 346.698C736.88 336.068 738 325.42 738 314.9C738 306.52 737.563 298.243 736.713 290.089Z" fill="#A08B46"/>
<path d="M638.981 291.167C640.307 298.883 641 306.813 641 314.9L640.995 315.606C640.876 324.77 638.46 336.735 633.365 351.166C625.81 354.162 617.918 357.69 609.744 361.734C580.353 376.279 549.77 396.228 521.892 417.357C494.032 438.473 469.541 460.259 452.277 478.082C450.661 479.751 449.124 481.368 447.666 482.932C443.211 477.432 438.732 471.734 434.279 465.874C427.426 456.856 420.733 447.586 414.34 438.205C433.657 418.463 459.679 395.498 488.67 373.525C518.435 350.966 552 328.944 585.351 312.44C602.817 303.797 620.961 296.293 638.981 291.167Z" fill="#A08B46"/>
<path d="M314.4 284C346.667 284 381.853 296.211 414.649 312.44C439.109 324.544 463.682 339.618 486.788 355.693C480.335 357.271 475.296 359.592 472.341 361.054C466.399 363.991 460.869 367.596 456.098 371.037C449.587 375.732 442.72 381.413 435.735 387.71C420.611 378.016 405.278 369.168 390.256 361.734C360.31 346.916 334.159 339 314.4 339C225.552 339 153.5 411.068 153.5 500C153.5 572.069 200.819 633.061 266.05 653.601C264.097 664.131 263 674.678 263 685.1C263 693.564 263.445 701.924 264.312 710.157C169.219 687.557 98.5 602.033 98.5 500C98.5 380.72 195.148 284 314.4 284Z" fill="#A08B46"/>
<path d="M552.865 516.491C557.475 522.169 562.112 528.061 566.721 534.126C573.426 542.95 579.979 552.016 586.247 561.19C566.871 581.067 540.617 604.279 511.33 626.476C481.565 649.035 448 671.056 414.649 687.56C397.491 696.051 379.677 703.44 361.971 708.558C360.676 700.928 360 693.091 360 685.1C360 675.752 362.455 663.383 367.795 648.37C374.997 645.476 382.5 642.104 390.256 638.266C419.647 623.721 450.23 603.772 478.108 582.643C505.968 561.527 530.459 539.741 547.723 521.918C549.537 520.044 551.251 518.233 552.865 516.491Z" fill="#A08B46"/>
<path d="M284 685.6C284 653.333 296.211 618.147 312.44 585.351C324.544 560.891 339.618 536.318 355.693 513.212C357.271 519.665 359.592 524.704 361.054 527.659C363.991 533.601 367.596 539.131 371.037 543.902C375.732 550.413 381.413 557.28 387.71 564.265C378.016 579.389 369.168 594.722 361.734 609.744C346.916 639.69 339 665.841 339 685.6C339 774.448 411.068 846.5 500 846.5C572.069 846.5 633.061 799.18 653.601 733.95C664.131 735.903 674.678 737 685.1 737C693.564 737 701.924 736.555 710.157 735.687C687.557 830.78 602.033 901.5 500 901.5C380.72 901.5 284 804.852 284 685.6Z" fill="#A08B46"/>
<path d="M516.491 447.135C522.169 442.525 528.061 437.888 534.126 433.279C542.95 426.574 552.016 420.021 561.19 413.753C581.067 433.129 604.279 459.383 626.476 488.67C649.035 518.435 671.056 552 687.56 585.351C696.051 602.509 703.44 620.323 708.558 638.029C700.928 639.324 693.091 640 685.1 640C675.752 640 663.383 637.545 648.37 632.205C645.476 625.003 642.104 617.5 638.266 609.744C623.721 580.353 603.772 549.77 582.643 521.892C561.527 494.032 539.741 469.541 521.918 452.277C520.044 450.462 518.233 448.749 516.491 447.135Z" fill="#A08B46"/>
</svg>
