<svg width="2350" height="980" viewBox="0 0 2350 980" fill="none" xmlns="http://www.w3.org/2000/svg">
<path d="M367.014 283.65C387.037 201.206 461.375 140 550 140C653.98 140 738.294 224.251 738.294 328.207C738.294 356.334 727.649 387.008 713.501 415.597C702.989 436.841 689.906 458.184 675.951 478.262C674.577 472.325 672.446 467.692 671.124 465.017C668.563 459.837 665.42 455.017 662.421 450.857C658.41 445.295 653.572 439.436 648.213 433.472C656.536 420.452 664.133 407.26 670.53 394.333C683.448 368.228 690.349 345.432 690.349 328.207C690.349 250.755 627.524 187.945 550 187.945C487.478 187.945 434.518 228.798 416.362 285.237C407.095 283.504 397.814 282.528 388.643 282.528C381.338 282.528 374.122 282.909 367.014 283.65Z" fill="#A59560"/>
<path d="M367.954 368.846C374.68 367.69 381.593 367.086 388.643 367.086L389.258 367.09C397.246 367.194 407.677 369.3 420.257 373.741C422.868 380.328 425.944 387.207 429.47 394.333C442.148 419.954 459.539 446.614 477.958 470.916C496.365 495.202 515.356 516.552 530.893 531.601C532.348 533.01 533.758 534.351 535.121 535.621C530.327 539.505 525.36 543.409 520.251 547.291C512.39 553.265 504.309 559.1 496.131 564.673C478.922 547.833 458.902 525.149 439.748 499.877C420.082 473.93 400.885 444.67 386.498 415.597C378.964 400.371 372.422 384.554 367.954 368.846Z" fill="#A59560"/>
<path d="M756.35 307.014C838.794 327.037 900 401.375 900 490C900 593.98 815.749 678.294 711.793 678.294C683.665 678.294 652.992 667.649 624.403 653.501C603.158 642.989 581.816 629.906 561.738 615.951C567.675 614.577 572.308 612.446 574.983 611.124C580.163 608.563 584.983 605.42 589.143 602.421C594.705 598.41 600.564 593.572 606.528 588.213C619.548 596.536 632.74 604.133 645.667 610.53C671.772 623.448 694.568 630.349 711.793 630.349C789.245 630.349 852.055 567.524 852.055 490C852.055 427.478 811.202 374.518 754.763 356.362C756.496 347.095 757.472 337.814 757.472 328.643C757.472 321.338 757.091 314.122 756.35 307.014Z" fill="#A59560"/>
<path d="M671.154 307.954C672.31 314.68 672.914 321.593 672.914 328.643L672.91 329.258C672.806 337.246 670.7 347.677 666.259 360.257C659.672 362.868 652.793 365.944 645.667 369.47C620.046 382.148 593.386 399.539 569.084 417.958C544.797 436.365 523.448 455.356 508.399 470.893C506.99 472.348 505.649 473.758 504.379 475.121C500.495 470.327 496.591 465.36 492.709 460.251C486.735 452.39 480.9 444.309 475.327 436.131C492.167 418.922 514.851 398.902 540.123 379.748C566.07 360.082 595.33 340.885 624.403 326.498C639.629 318.964 655.446 312.423 671.154 307.954Z" fill="#A59560"/>
<path d="M388.207 301.706C416.334 301.706 447.008 312.351 475.597 326.498C496.919 337.05 518.34 350.19 538.483 364.203C532.858 365.579 528.465 367.602 525.889 368.876C520.709 371.437 515.888 374.58 511.729 377.579C506.054 381.672 500.067 386.624 493.978 392.113C480.794 383.663 467.428 375.95 454.333 369.47C428.228 356.552 405.432 349.651 388.207 349.651C310.755 349.651 247.945 412.476 247.945 490C247.945 552.825 289.195 605.994 346.058 623.898C344.356 633.078 343.4 642.272 343.4 651.357C343.4 658.736 343.788 666.023 344.544 673.201C261.648 653.5 200 578.945 200 490C200 386.02 284.251 301.706 388.207 301.706Z" fill="#A59560"/>
<path d="M596.084 504.376C600.103 509.325 604.145 514.461 608.162 519.749C614.008 527.441 619.72 535.344 625.184 543.342C608.294 560.669 585.407 580.903 559.877 600.253C533.929 619.918 504.67 639.114 475.597 653.501C460.639 660.903 445.111 667.345 429.676 671.806C428.547 665.155 427.958 658.323 427.958 651.357C427.958 643.209 430.098 632.426 434.753 619.339C441.031 616.816 447.571 613.876 454.333 610.53C479.954 597.852 506.614 580.461 530.916 562.042C555.202 543.635 576.552 524.644 591.601 509.107C593.183 507.473 594.677 505.894 596.084 504.376Z" fill="#A59560"/>
<path d="M361.706 651.793C361.706 623.665 372.351 592.992 386.498 564.403C397.05 543.081 410.19 521.66 424.203 501.517C425.579 507.142 427.602 511.535 428.876 514.111C431.437 519.291 434.58 524.112 437.579 528.271C441.671 533.946 446.624 539.933 452.113 546.021C443.663 559.206 435.95 572.572 429.47 585.667C416.552 611.772 409.651 634.568 409.651 651.793C409.651 729.245 472.476 792.055 550 792.055C612.825 792.055 665.994 750.805 683.898 693.942C693.078 695.644 702.272 696.6 711.357 696.6C718.736 696.6 726.023 696.212 733.201 695.456C713.5 778.352 638.945 840 550 840C446.02 840 361.706 755.749 361.706 651.793Z" fill="#A59560"/>
<path d="M564.376 443.916C569.325 439.897 574.461 435.855 579.749 431.837C587.441 425.992 595.344 420.28 603.342 414.816C620.669 431.706 640.903 454.593 660.253 480.123C679.918 506.07 699.114 535.33 713.501 564.403C720.903 579.36 727.345 594.889 731.806 610.324C725.155 611.453 718.323 612.042 711.357 612.042C703.209 612.042 692.426 609.902 679.339 605.247C676.816 598.969 673.876 592.429 670.53 585.667C657.851 560.046 640.461 533.386 622.042 509.084C603.635 484.797 584.644 463.448 569.107 448.399C567.473 446.817 565.894 445.323 564.376 443.916Z" fill="#A59560"/>
<path d="M1347.23 259.788C1355.41 259.788 1364.17 260.469 1373.51 261.832C1383.05 263.195 1390.55 265.141 1396 267.672C1397.75 268.256 1398.92 269.035 1399.5 270.008C1400.08 270.787 1400.47 272.247 1400.67 274.388L1404.17 314.976C1404.17 315.56 1403.69 315.949 1402.71 316.144C1401.93 316.339 1401.35 316.047 1400.96 315.268C1394.54 300.279 1385.78 288.501 1374.68 279.936C1363.78 271.371 1350.83 267.088 1335.84 267.088C1322.8 267.088 1311.71 270.397 1302.56 277.016C1293.6 283.635 1286.79 292.881 1282.12 304.756C1277.64 316.436 1275.4 330.063 1275.4 345.636C1275.4 359.068 1277.06 371.721 1280.36 383.596C1283.67 395.276 1288.35 405.593 1294.38 414.548C1300.42 423.308 1307.62 430.219 1315.99 435.28C1324.36 440.341 1333.61 442.872 1343.73 442.872C1356.19 442.872 1367.28 438.784 1377.02 430.608C1386.94 422.432 1395.8 409.779 1403.59 392.648C1403.98 391.869 1404.66 391.577 1405.63 391.772C1406.61 391.967 1407.09 392.356 1407.09 392.94L1402.71 432.652C1402.32 434.988 1401.84 436.545 1401.25 437.324C1400.86 437.908 1399.79 438.589 1398.04 439.368C1389.09 442.677 1380.03 445.111 1370.88 446.668C1361.93 448.225 1353.17 449.004 1344.6 449.004C1325.72 449.004 1309.56 446.181 1296.13 440.536C1282.7 434.696 1271.7 427.104 1263.14 417.76C1254.77 408.221 1248.54 397.904 1244.45 386.808C1240.56 375.517 1238.61 364.421 1238.61 353.52C1238.61 339.115 1241.53 326.169 1247.37 314.684C1253.4 303.199 1261.48 293.368 1271.6 285.192C1281.92 277.016 1293.5 270.787 1306.35 266.504C1319.4 262.027 1333.02 259.788 1347.23 259.788ZM1489.13 358.192L1493.51 350.016H1553.66L1555.7 358.192H1489.13ZM1634.84 441.996C1635.81 441.996 1636.3 442.58 1636.3 443.748C1636.3 444.916 1635.81 445.5 1634.84 445.5C1629 445.5 1622.86 445.305 1616.44 444.916C1610.21 444.527 1604.18 444.332 1598.34 444.332C1591.72 444.332 1585.98 444.527 1581.11 444.916C1576.24 445.305 1570.79 445.5 1564.76 445.5C1563.98 445.5 1563.59 444.916 1563.59 443.748C1563.59 442.58 1563.98 441.996 1564.76 441.996C1572.74 441.996 1577.31 440.439 1578.48 437.324C1579.84 434.015 1578.09 427.591 1573.22 418.052L1513.95 300.96L1528.26 275.848L1470.15 404.036C1464.89 415.716 1464.8 424.963 1469.86 431.776C1474.92 438.589 1482.9 441.996 1493.8 441.996C1494.77 441.996 1495.26 442.58 1495.26 443.748C1495.26 444.916 1494.77 445.5 1493.8 445.5C1487.96 445.5 1482.61 445.305 1477.74 444.916C1472.87 444.527 1466.74 444.332 1459.34 444.332C1451.75 444.332 1445.62 444.527 1440.95 444.916C1436.47 445.305 1430.92 445.5 1424.3 445.5C1423.53 445.5 1423.14 444.916 1423.14 443.748C1423.14 442.58 1423.53 441.996 1424.3 441.996C1429.56 441.996 1434.04 440.925 1437.74 438.784C1441.63 436.448 1445.43 432.36 1449.12 426.52C1453.02 420.485 1457.4 412.017 1462.26 401.116L1525.63 261.832C1525.82 261.248 1526.7 260.956 1528.26 260.956C1529.81 260.761 1530.69 261.053 1530.88 261.832L1603.88 405.496C1608.56 414.645 1612.55 421.945 1615.86 427.396C1619.36 432.652 1622.57 436.448 1625.49 438.784C1628.61 440.925 1631.72 441.996 1634.84 441.996ZM1706.62 421.848C1706.62 427.493 1707.1 431.776 1708.08 434.696C1709.05 437.616 1711 439.563 1713.92 440.536C1716.84 441.509 1721.31 441.996 1727.35 441.996C1727.93 441.996 1728.22 442.58 1728.22 443.748C1728.22 444.916 1727.93 445.5 1727.35 445.5C1722.29 445.5 1716.64 445.403 1710.41 445.208C1704.18 445.013 1697.37 444.916 1689.97 444.916C1682.96 444.916 1676.25 445.013 1669.82 445.208C1663.4 445.403 1657.66 445.5 1652.6 445.5C1652.21 445.5 1652.01 444.916 1652.01 443.748C1652.01 442.58 1652.21 441.996 1652.6 441.996C1658.63 441.996 1663.11 441.509 1666.03 440.536C1669.14 439.563 1671.19 437.616 1672.16 434.696C1673.33 431.776 1673.91 427.493 1673.91 421.848V286.652C1673.91 281.007 1673.33 276.821 1672.16 274.096C1671.19 271.176 1669.14 269.229 1666.03 268.256C1663.11 267.088 1658.63 266.504 1652.6 266.504C1652.21 266.504 1652.01 265.92 1652.01 264.752C1652.01 263.584 1652.21 263 1652.6 263C1657.66 263 1663.4 263.195 1669.82 263.584C1676.25 263.779 1682.96 263.876 1689.97 263.876C1697.37 263.876 1704.18 263.779 1710.41 263.584C1716.84 263.195 1722.48 263 1727.35 263C1727.93 263 1728.22 263.584 1728.22 264.752C1728.22 265.92 1727.93 266.504 1727.35 266.504C1721.51 266.504 1717.03 267.088 1713.92 268.256C1711 269.424 1709.05 271.468 1708.08 274.388C1707.1 277.308 1706.62 281.591 1706.62 287.236V421.848ZM1783.06 408.416V269.716L1791.82 270.3V408.416C1791.82 418.733 1793.96 426.909 1798.24 432.944C1802.53 438.979 1808.46 441.996 1816.06 441.996C1816.45 441.996 1816.64 442.58 1816.64 443.748C1816.64 444.916 1816.45 445.5 1816.06 445.5C1811.77 445.5 1807.3 445.403 1802.62 445.208C1798.15 445.013 1793.18 444.916 1787.73 444.916C1781.89 444.916 1776.15 445.013 1770.5 445.208C1765.05 445.403 1759.99 445.5 1755.32 445.5C1754.74 445.5 1754.44 444.916 1754.44 443.748C1754.44 442.58 1754.74 441.996 1755.32 441.996C1763.89 441.996 1770.6 438.979 1775.47 432.944C1780.53 426.909 1783.06 418.733 1783.06 408.416ZM1931.98 449.88C1931.98 450.464 1931.49 450.756 1930.52 450.756C1929.74 450.951 1929.16 450.951 1928.77 450.756L1784.81 286.944C1777.8 278.963 1771.87 273.609 1767 270.884C1762.13 267.964 1757.27 266.504 1752.4 266.504C1752.01 266.504 1751.82 265.92 1751.82 264.752C1751.82 263.584 1752.01 263 1752.4 263C1756.29 263 1760.28 263.097 1764.37 263.292C1768.46 263.487 1772.26 263.584 1775.76 263.584C1782.77 263.584 1789.1 263.487 1794.74 263.292C1800.39 263.097 1804.77 263 1807.88 263C1810.41 263 1812.26 264.168 1813.43 266.504C1814.79 268.645 1817.81 272.539 1822.48 278.184L1929.64 401.7L1931.98 449.88ZM1931.98 300.376V449.88L1923.51 441.12V300.376C1923.51 290.059 1921.37 281.883 1917.09 275.848C1912.81 269.619 1906.87 266.504 1899.28 266.504C1898.89 266.504 1898.69 265.92 1898.69 264.752C1898.69 263.584 1898.89 263 1899.28 263C1903.56 263 1907.94 263.195 1912.42 263.584C1917.09 263.779 1922.15 263.876 1927.6 263.876C1932.86 263.876 1938.02 263.779 1943.08 263.584C1948.14 263.195 1952.81 263 1957.09 263C1957.48 263 1957.68 263.584 1957.68 264.752C1957.68 265.92 1957.48 266.504 1957.09 266.504C1949.31 266.504 1943.17 269.619 1938.7 275.848C1934.22 281.883 1931.98 290.059 1931.98 300.376ZM1287.67 567.34C1291.19 567.34 1294.1 566.812 1296.38 565.756C1298.67 564.612 1300.34 563.028 1301.4 561.004C1302.54 558.892 1303.12 556.428 1303.12 553.612C1303.12 549.3 1301.84 545.956 1299.29 543.58C1296.82 541.204 1292.95 540.016 1287.67 540.016H1268V567.34H1287.67ZM1321.33 553.612C1321.33 557.044 1320.72 560.476 1319.48 563.908C1318.25 567.252 1316.32 570.332 1313.68 573.148C1311.04 575.876 1307.6 578.076 1303.38 579.748C1299.24 581.42 1294.18 582.256 1288.2 582.256H1268V617.5H1250.18V525.1H1288.2C1295.68 525.1 1301.84 526.42 1306.68 529.06C1311.61 531.612 1315.26 535.088 1317.64 539.488C1320.1 543.8 1321.33 548.508 1321.33 553.612ZM1371.76 540.016H1367.01L1339.82 617.5H1321.47L1354.6 525.1H1384.04L1417.17 617.5H1398.82L1371.76 540.016ZM1341.53 581.332H1395.39V596.248H1341.53V581.332ZM1482.68 553.612C1482.68 549.476 1481.4 546.176 1478.85 543.712C1476.38 541.248 1472.51 540.016 1467.23 540.016H1447.56V567.34H1467.23C1470.75 567.34 1473.66 566.812 1475.94 565.756C1478.23 564.612 1479.9 563.028 1480.96 561.004C1482.1 558.892 1482.68 556.428 1482.68 553.612ZM1467.76 525.1C1475.24 525.1 1481.4 526.42 1486.24 529.06C1491.17 531.612 1494.82 535.088 1497.2 539.488C1499.66 543.8 1500.89 548.508 1500.89 553.612C1500.89 557.044 1500.28 560.476 1499.04 563.908C1497.81 567.252 1495.88 570.332 1493.24 573.148C1490.6 575.876 1487.16 578.076 1482.94 579.748C1478.8 581.42 1473.74 582.256 1467.76 582.256H1447.56V617.5H1429.74V525.1H1467.76ZM1477.79 576.316L1502.74 617.5H1482.81L1458.92 576.316H1477.79ZM1514.52 525.1H1589.5V540.016H1560.99V617.5H1543.17V540.016H1514.52V525.1ZM1681.87 525.1V617.5H1663.65L1623.26 553.348V617.5H1605.44V525.1H1623.52L1664.05 589.252V525.1H1681.87ZM1767.38 540.016H1720.26V563.512H1755.5V577.9H1720.26V602.584H1767.38V617.5H1702.44V525.1H1767.38V540.016ZM1838.32 553.612C1838.32 549.476 1837.04 546.176 1834.49 543.712C1832.03 541.248 1828.15 540.016 1822.87 540.016H1803.21V567.34H1822.87C1826.39 567.34 1829.3 566.812 1831.59 565.756C1833.87 564.612 1835.55 563.028 1836.6 561.004C1837.75 558.892 1838.32 556.428 1838.32 553.612ZM1823.4 525.1C1830.88 525.1 1837.04 526.42 1841.88 529.06C1846.81 531.612 1850.46 535.088 1852.84 539.488C1855.3 543.8 1856.53 548.508 1856.53 553.612C1856.53 557.044 1855.92 560.476 1854.69 563.908C1853.45 567.252 1851.52 570.332 1848.88 573.148C1846.24 575.876 1842.81 578.076 1838.58 579.748C1834.45 581.42 1829.39 582.256 1823.4 582.256H1803.21V617.5H1785.39V525.1H1823.4ZM1833.43 576.316L1858.38 617.5H1838.45L1814.56 576.316H1833.43ZM1887.59 591.364C1888.03 593.828 1889 595.984 1890.49 597.832C1891.99 599.68 1893.92 601.132 1896.3 602.188C1898.76 603.156 1901.62 603.64 1904.88 603.64C1909.98 603.64 1913.81 602.496 1916.36 600.208C1918.92 597.832 1920.19 594.972 1920.19 591.628C1920.19 588.988 1919.4 586.788 1917.82 585.028C1916.23 583.268 1913.99 581.772 1911.08 580.54C1908.27 579.308 1904.97 578.12 1901.18 576.976C1897.66 575.92 1894.19 574.776 1890.76 573.544C1887.32 572.312 1884.2 570.772 1881.38 568.924C1878.57 567.076 1876.32 564.7 1874.65 561.796C1873.07 558.804 1872.28 555.064 1872.28 550.576C1872.28 544.944 1873.64 540.148 1876.37 536.188C1879.18 532.228 1883.01 529.236 1887.85 527.212C1892.69 525.188 1898.28 524.176 1904.62 524.176C1909.98 524.176 1914.82 524.968 1919.14 526.552C1923.45 528.048 1927.06 530.292 1929.96 533.284C1932.95 536.188 1935.15 539.796 1936.56 544.108L1920.06 548.596C1919.62 546.66 1918.65 544.988 1917.16 543.58C1915.66 542.172 1913.86 541.072 1911.74 540.28C1909.63 539.4 1907.34 538.96 1904.88 538.96C1902.24 538.872 1899.82 539.268 1897.62 540.148C1895.42 541.028 1893.66 542.304 1892.34 543.976C1891.02 545.648 1890.36 547.584 1890.36 549.784C1890.36 552.248 1891.11 554.228 1892.6 555.724C1894.1 557.132 1896.08 558.364 1898.54 559.42C1901.01 560.388 1903.78 561.356 1906.86 562.324C1910.56 563.38 1914.25 564.612 1917.95 566.02C1921.64 567.34 1925.03 569.056 1928.11 571.168C1931.19 573.192 1933.66 575.788 1935.5 578.956C1937.44 582.124 1938.41 586.128 1938.41 590.968C1938.41 596.072 1937.18 600.692 1934.71 604.828C1932.34 608.964 1928.73 612.264 1923.89 614.728C1919.05 617.192 1912.98 618.424 1905.67 618.424C1899.69 618.424 1894.23 617.544 1889.3 615.784C1884.46 614.024 1880.46 611.472 1877.29 608.128C1874.12 604.696 1872.06 600.648 1871.09 595.984L1887.59 591.364Z" fill="#A59560"/>
<path d="M1069.36 722.238H1047.1V734.452H1063.78V740.59H1047.1V753.362H1069.36V759.5H1039.73V716.1H1069.36V722.238ZM1079.5 716.1H1087.74L1099.46 731.91L1111.24 716.1H1119.43L1103.68 737.8L1119.43 759.5H1111.24L1099.46 743.69L1087.74 759.5H1079.5L1095.31 737.8L1079.5 716.1ZM1160.36 722.238H1138.1V734.452H1154.78V740.59H1138.1V753.362H1160.36V759.5H1130.72V716.1H1160.36V722.238ZM1169.75 737.8C1169.75 734.535 1170.31 731.559 1171.42 728.872C1172.58 726.144 1174.15 723.809 1176.13 721.866C1178.16 719.882 1180.49 718.353 1183.14 717.278C1185.83 716.203 1188.7 715.666 1191.76 715.666C1196.02 715.666 1199.86 716.679 1203.29 718.704C1206.76 720.729 1209.41 723.643 1211.23 727.446L1205.21 729.492C1204.26 727.673 1203.04 726.206 1201.55 725.09C1200.07 723.974 1198.5 723.168 1196.84 722.672C1195.19 722.176 1193.56 721.928 1191.94 721.928C1189.13 721.928 1186.61 722.589 1184.38 723.912C1182.15 725.193 1180.39 727.033 1179.11 729.43C1177.87 731.786 1177.25 734.576 1177.25 737.8C1177.25 740.983 1177.87 743.773 1179.11 746.17C1180.39 748.526 1182.15 750.365 1184.38 751.688C1186.61 753.011 1189.13 753.672 1191.94 753.672C1193.6 753.672 1195.27 753.424 1196.97 752.928C1198.7 752.391 1200.33 751.481 1201.86 750.2C1203.43 748.877 1204.74 747.121 1205.77 744.93L1211.72 746.852C1209.82 751.316 1207.11 754.623 1203.6 756.772C1200.09 758.88 1196.14 759.934 1191.76 759.934C1188.7 759.934 1185.83 759.397 1183.14 758.322C1180.49 757.247 1178.16 755.718 1176.13 753.734C1174.15 751.75 1172.58 749.415 1171.42 746.728C1170.31 744 1169.75 741.024 1169.75 737.8ZM1222.74 716.1H1230.06V743.752C1230.06 745.943 1230.49 747.782 1231.36 749.27C1232.27 750.758 1233.49 751.874 1235.02 752.618C1236.55 753.321 1238.28 753.672 1240.22 753.672C1242.25 753.672 1244.03 753.321 1245.56 752.618C1247.09 751.874 1248.28 750.758 1249.15 749.27C1250.06 747.782 1250.52 745.943 1250.52 743.752V716.1H1257.83V743.566C1257.83 746.335 1257.34 748.753 1256.34 750.82C1255.39 752.845 1254.07 754.54 1252.38 755.904C1250.72 757.268 1248.84 758.281 1246.73 758.942C1244.67 759.603 1242.48 759.934 1240.16 759.934C1237.1 759.934 1234.25 759.335 1231.61 758.136C1228.96 756.937 1226.81 755.139 1225.16 752.742C1223.55 750.303 1222.74 747.245 1222.74 743.566V716.1ZM1268.25 716.1H1302.35V722.238H1289.02V759.5H1281.64V722.238H1268.25V716.1ZM1312.83 716.1H1320.21V759.5H1312.83V716.1ZM1363.09 716.1H1370.9L1354.72 759.5H1346.1L1329.98 716.1H1337.79L1350.44 751.998L1363.09 716.1ZM1410.33 722.238H1388.07V734.452H1404.75V740.59H1388.07V753.362H1410.33V759.5H1380.7V716.1H1410.33V722.238ZM1448.01 747.596C1448.26 748.753 1448.74 749.807 1449.44 750.758C1450.18 751.667 1451.15 752.391 1452.35 752.928C1453.59 753.465 1455.06 753.734 1456.75 753.734C1459.36 753.734 1461.3 753.135 1462.58 751.936C1463.86 750.696 1464.5 749.249 1464.5 747.596C1464.5 746.232 1464.09 745.095 1463.26 744.186C1462.48 743.277 1461.36 742.512 1459.92 741.892C1458.47 741.231 1456.82 740.611 1454.96 740.032C1453.26 739.536 1451.63 739.019 1450.06 738.482C1448.49 737.903 1447.06 737.201 1445.78 736.374C1444.54 735.506 1443.55 734.411 1442.8 733.088C1442.06 731.724 1441.71 730.029 1441.75 728.004C1441.75 725.359 1442.37 723.127 1443.61 721.308C1444.85 719.448 1446.59 718.043 1448.82 717.092C1451.05 716.141 1453.61 715.666 1456.51 715.666C1458.95 715.666 1461.14 716.017 1463.08 716.72C1465.06 717.381 1466.74 718.373 1468.1 719.696C1469.46 720.977 1470.48 722.569 1471.14 724.47L1464.38 726.702C1464.13 725.793 1463.64 724.987 1462.89 724.284C1462.15 723.54 1461.22 722.961 1460.1 722.548C1459.03 722.135 1457.85 721.907 1456.57 721.866C1455.16 721.825 1453.9 722.031 1452.79 722.486C1451.71 722.941 1450.84 723.602 1450.18 724.47C1449.52 725.297 1449.19 726.268 1449.19 727.384C1449.19 728.665 1449.56 729.678 1450.31 730.422C1451.05 731.125 1452.02 731.724 1453.22 732.22C1454.46 732.675 1455.82 733.15 1457.31 733.646C1459.05 734.142 1460.76 734.721 1462.46 735.382C1464.19 736.002 1465.77 736.808 1467.17 737.8C1468.62 738.751 1469.77 739.97 1470.64 741.458C1471.51 742.946 1471.94 744.806 1471.94 747.038C1471.94 749.435 1471.39 751.605 1470.27 753.548C1469.2 755.491 1467.54 757.041 1465.31 758.198C1463.08 759.355 1460.31 759.934 1457 759.934C1454.32 759.934 1451.86 759.541 1449.62 758.756C1447.43 757.929 1445.59 756.772 1444.11 755.284C1442.66 753.755 1441.71 751.957 1441.25 749.89L1448.01 747.596ZM1512.56 722.238H1490.3V734.452H1506.98V740.59H1490.3V753.362H1512.56V759.5H1482.92V716.1H1512.56V722.238ZM1542.96 722.238H1540.73L1527.71 759.5H1520.15L1535.52 716.1H1548.05L1563.49 759.5H1555.92L1542.96 722.238ZM1528.58 742.822H1553.88V748.898H1528.58V742.822ZM1597.02 729.182C1597.02 727.033 1596.38 725.338 1595.1 724.098C1593.82 722.858 1591.83 722.238 1589.15 722.238H1579.54V736.188H1589.15C1590.96 736.188 1592.43 735.919 1593.55 735.382C1594.71 734.803 1595.57 733.997 1596.15 732.964C1596.73 731.889 1597.02 730.629 1597.02 729.182ZM1589.15 716.1C1592.62 716.1 1595.47 716.699 1597.7 717.898C1599.98 719.055 1601.67 720.647 1602.79 722.672C1603.9 724.656 1604.46 726.826 1604.46 729.182C1604.46 730.753 1604.19 732.303 1603.65 733.832C1603.12 735.361 1602.25 736.787 1601.05 738.11C1599.85 739.391 1598.26 740.425 1596.28 741.21C1594.33 741.954 1591.96 742.326 1589.15 742.326H1579.54V759.5H1572.16V716.1H1589.15ZM1593.55 739.908L1605.39 759.5H1597.08L1585.67 739.908H1593.55ZM1613.73 737.8C1613.73 734.535 1614.29 731.559 1615.4 728.872C1616.56 726.144 1618.13 723.809 1620.11 721.866C1622.14 719.882 1624.47 718.353 1627.12 717.278C1629.81 716.203 1632.68 715.666 1635.74 715.666C1640 715.666 1643.84 716.679 1647.27 718.704C1650.74 720.729 1653.39 723.643 1655.21 727.446L1649.19 729.492C1648.24 727.673 1647.02 726.206 1645.53 725.09C1644.05 723.974 1642.48 723.168 1640.82 722.672C1639.17 722.176 1637.54 721.928 1635.92 721.928C1633.11 721.928 1630.59 722.589 1628.36 723.912C1626.13 725.193 1624.37 727.033 1623.09 729.43C1621.85 731.786 1621.23 734.576 1621.23 737.8C1621.23 740.983 1621.85 743.773 1623.09 746.17C1624.37 748.526 1626.13 750.365 1628.36 751.688C1630.59 753.011 1633.11 753.672 1635.92 753.672C1637.58 753.672 1639.25 753.424 1640.95 752.928C1642.68 752.391 1644.31 751.481 1645.84 750.2C1647.41 748.877 1648.72 747.121 1649.75 744.93L1655.7 746.852C1653.8 751.316 1651.09 754.623 1647.58 756.772C1644.07 758.88 1640.12 759.934 1635.74 759.934C1632.68 759.934 1629.81 759.397 1627.12 758.322C1624.47 757.247 1622.14 755.718 1620.11 753.734C1618.13 751.75 1616.56 749.415 1615.4 746.728C1614.29 744 1613.73 741.024 1613.73 737.8ZM1666.91 716.1H1674.28V734.452H1694.74V716.1H1702.06V759.5H1694.74V740.59H1674.28V759.5H1666.91V716.1ZM1740.94 747.596C1741.19 748.753 1741.67 749.807 1742.37 750.758C1743.11 751.667 1744.08 752.391 1745.28 752.928C1746.52 753.465 1747.99 753.734 1749.69 753.734C1752.29 753.734 1754.23 753.135 1755.51 751.936C1756.79 750.696 1757.44 749.249 1757.44 747.596C1757.44 746.232 1757.02 745.095 1756.2 744.186C1755.41 743.277 1754.29 742.512 1752.85 741.892C1751.4 741.231 1749.75 740.611 1747.89 740.032C1746.19 739.536 1744.56 739.019 1742.99 738.482C1741.42 737.903 1739.99 737.201 1738.71 736.374C1737.47 735.506 1736.48 734.411 1735.74 733.088C1734.99 731.724 1734.64 730.029 1734.68 728.004C1734.68 725.359 1735.3 723.127 1736.54 721.308C1737.78 719.448 1739.52 718.043 1741.75 717.092C1743.98 716.141 1746.54 715.666 1749.44 715.666C1751.88 715.666 1754.07 716.017 1756.01 716.72C1757.99 717.381 1759.67 718.373 1761.03 719.696C1762.4 720.977 1763.41 722.569 1764.07 724.47L1757.31 726.702C1757.06 725.793 1756.57 724.987 1755.82 724.284C1755.08 723.54 1754.15 722.961 1753.03 722.548C1751.96 722.135 1750.78 721.907 1749.5 721.866C1748.09 721.825 1746.83 722.031 1745.72 722.486C1744.64 722.941 1743.77 723.602 1743.11 724.47C1742.45 725.297 1742.12 726.268 1742.12 727.384C1742.12 728.665 1742.49 729.678 1743.24 730.422C1743.98 731.125 1744.95 731.724 1746.15 732.22C1747.39 732.675 1748.76 733.15 1750.24 733.646C1751.98 734.142 1753.69 734.721 1755.39 735.382C1757.13 736.002 1758.7 736.808 1760.1 737.8C1761.55 738.751 1762.71 739.97 1763.57 741.458C1764.44 742.946 1764.88 744.806 1764.88 747.038C1764.88 749.435 1764.32 751.605 1763.2 753.548C1762.13 755.491 1760.47 757.041 1758.24 758.198C1756.01 759.355 1753.24 759.934 1749.93 759.934C1747.25 759.934 1744.79 759.541 1742.56 758.756C1740.36 757.929 1738.53 756.772 1737.04 755.284C1735.59 753.755 1734.64 751.957 1734.19 749.89L1740.94 747.596ZM1792.84 736.188C1794.66 736.188 1796.12 735.919 1797.24 735.382C1798.4 734.803 1799.27 733.997 1799.84 732.964C1800.42 731.889 1800.71 730.629 1800.71 729.182C1800.71 726.991 1800.07 725.297 1798.79 724.098C1797.51 722.858 1795.52 722.238 1792.84 722.238H1783.23V736.188H1792.84ZM1808.15 729.182C1808.15 730.753 1807.88 732.303 1807.35 733.832C1806.81 735.361 1805.94 736.787 1804.74 738.11C1803.54 739.391 1801.95 740.425 1799.97 741.21C1798.03 741.954 1795.65 742.326 1792.84 742.326H1783.23V759.5H1775.85V716.1H1792.84C1796.31 716.1 1799.16 716.699 1801.39 717.898C1803.67 719.055 1805.36 720.647 1806.48 722.672C1807.59 724.656 1808.15 726.826 1808.15 729.182ZM1848.38 722.238H1826.12V734.452H1842.8V740.59H1826.12V753.362H1848.38V759.5H1818.74V716.1H1848.38V722.238ZM1857.77 737.8C1857.77 734.535 1858.33 731.559 1859.44 728.872C1860.6 726.144 1862.17 723.809 1864.16 721.866C1866.18 719.882 1868.52 718.353 1871.16 717.278C1873.85 716.203 1876.72 715.666 1879.78 715.666C1884.04 715.666 1887.88 716.679 1891.31 718.704C1894.78 720.729 1897.43 723.643 1899.25 727.446L1893.23 729.492C1892.28 727.673 1891.06 726.206 1889.58 725.09C1888.09 723.974 1886.52 723.168 1884.86 722.672C1883.21 722.176 1881.58 721.928 1879.97 721.928C1877.16 721.928 1874.63 722.589 1872.4 723.912C1870.17 725.193 1868.41 727.033 1867.13 729.43C1865.89 731.786 1865.27 734.576 1865.27 737.8C1865.27 740.983 1865.89 743.773 1867.13 746.17C1868.41 748.526 1870.17 750.365 1872.4 751.688C1874.63 753.011 1877.16 753.672 1879.97 753.672C1881.62 753.672 1883.29 753.424 1884.99 752.928C1886.72 752.391 1888.36 751.481 1889.89 750.2C1891.46 748.877 1892.76 747.121 1893.79 744.93L1899.74 746.852C1897.84 751.316 1895.14 754.623 1891.62 756.772C1888.11 758.88 1884.16 759.934 1879.78 759.934C1876.72 759.934 1873.85 759.397 1871.16 758.322C1868.52 757.247 1866.18 755.718 1864.16 753.734C1862.17 751.75 1860.6 749.415 1859.44 746.728C1858.33 744 1857.77 741.024 1857.77 737.8ZM1910.95 716.1H1918.33V759.5H1910.95V716.1ZM1949.92 722.238H1947.69L1934.67 759.5H1927.11L1942.48 716.1H1955.01L1970.45 759.5H1962.88L1949.92 722.238ZM1935.54 742.822H1960.84V748.898H1935.54V742.822ZM1986.5 716.1V753.362H2005.96V759.5H1979.12V716.1H1986.5ZM2015.78 716.1H2023.15V759.5H2015.78V716.1ZM2040.92 747.596C2041.17 748.753 2041.65 749.807 2042.35 750.758C2043.09 751.667 2044.07 752.391 2045.26 752.928C2046.5 753.465 2047.97 753.734 2049.67 753.734C2052.27 753.734 2054.21 753.135 2055.49 751.936C2056.78 750.696 2057.42 749.249 2057.42 747.596C2057.42 746.232 2057 745.095 2056.18 744.186C2055.39 743.277 2054.27 742.512 2052.83 741.892C2051.38 741.231 2049.73 740.611 2047.87 740.032C2046.17 739.536 2044.54 739.019 2042.97 738.482C2041.4 737.903 2039.97 737.201 2038.69 736.374C2037.45 735.506 2036.46 734.411 2035.72 733.088C2034.97 731.724 2034.62 730.029 2034.66 728.004C2034.66 725.359 2035.28 723.127 2036.52 721.308C2037.76 719.448 2039.5 718.043 2041.73 717.092C2043.96 716.141 2046.52 715.666 2049.42 715.666C2051.86 715.666 2054.05 716.017 2055.99 716.72C2057.97 717.381 2059.65 718.373 2061.01 719.696C2062.38 720.977 2063.39 722.569 2064.05 724.47L2057.29 726.702C2057.04 725.793 2056.55 724.987 2055.8 724.284C2055.06 723.54 2054.13 722.961 2053.01 722.548C2051.94 722.135 2050.76 721.907 2049.48 721.866C2048.07 721.825 2046.81 722.031 2045.7 722.486C2044.62 722.941 2043.76 723.602 2043.09 724.47C2042.43 725.297 2042.1 726.268 2042.1 727.384C2042.1 728.665 2042.47 729.678 2043.22 730.422C2043.96 731.125 2044.93 731.724 2046.13 732.22C2047.37 732.675 2048.74 733.15 2050.22 733.646C2051.96 734.142 2053.68 734.721 2055.37 735.382C2057.11 736.002 2058.68 736.808 2060.08 737.8C2061.53 738.751 2062.69 739.97 2063.55 741.458C2064.42 742.946 2064.86 744.806 2064.86 747.038C2064.86 749.435 2064.3 751.605 2063.18 753.548C2062.11 755.491 2060.45 757.041 2058.22 758.198C2055.99 759.355 2053.22 759.934 2049.91 759.934C2047.23 759.934 2044.77 759.541 2042.54 758.756C2040.35 757.929 2038.51 756.772 2037.02 755.284C2035.57 753.755 2034.62 751.957 2034.17 749.89L2040.92 747.596ZM2073.6 716.1H2107.7V722.238H2094.37V759.5H2086.99V722.238H2073.6V716.1ZM2123.14 747.596C2123.39 748.753 2123.86 749.807 2124.57 750.758C2125.31 751.667 2126.28 752.391 2127.48 752.928C2128.72 753.465 2130.19 753.734 2131.88 753.734C2134.49 753.734 2136.43 753.135 2137.71 751.936C2138.99 750.696 2139.63 749.249 2139.63 747.596C2139.63 746.232 2139.22 745.095 2138.39 744.186C2137.61 743.277 2136.49 742.512 2135.04 741.892C2133.6 741.231 2131.94 740.611 2130.08 740.032C2128.39 739.536 2126.76 739.019 2125.19 738.482C2123.61 737.903 2122.19 737.201 2120.91 736.374C2119.67 735.506 2118.68 734.411 2117.93 733.088C2117.19 731.724 2116.84 730.029 2116.88 728.004C2116.88 725.359 2117.5 723.127 2118.74 721.308C2119.98 719.448 2121.71 718.043 2123.95 717.092C2126.18 716.141 2128.74 715.666 2131.63 715.666C2134.07 715.666 2136.26 716.017 2138.21 716.72C2140.19 717.381 2141.86 718.373 2143.23 719.696C2144.59 720.977 2145.6 722.569 2146.27 724.47L2139.51 726.702C2139.26 725.793 2138.76 724.987 2138.02 724.284C2137.28 723.54 2136.35 722.961 2135.23 722.548C2134.15 722.135 2132.98 721.907 2131.7 721.866C2130.29 721.825 2129.03 722.031 2127.91 722.486C2126.84 722.941 2125.97 723.602 2125.31 724.47C2124.65 725.297 2124.32 726.268 2124.32 727.384C2124.32 728.665 2124.69 729.678 2125.43 730.422C2126.18 731.125 2127.15 731.724 2128.35 732.22C2129.59 732.675 2130.95 733.15 2132.44 733.646C2134.18 734.142 2135.89 734.721 2137.59 735.382C2139.32 736.002 2140.89 736.808 2142.3 737.8C2143.74 738.751 2144.9 739.97 2145.77 741.458C2146.64 742.946 2147.07 744.806 2147.07 747.038C2147.07 749.435 2146.51 751.605 2145.4 753.548C2144.32 755.491 2142.67 757.041 2140.44 758.198C2138.21 759.355 2135.44 759.934 2132.13 759.934C2129.44 759.934 2126.98 759.541 2124.75 758.756C2122.56 757.929 2120.72 756.772 2119.23 755.284C2117.79 753.755 2116.84 751.957 2116.38 749.89L2123.14 747.596Z" fill="#A59560"/>
</svg>
