<svg width="2239" height="759" viewBox="0 0 2239 759" fill="none" xmlns="http://www.w3.org/2000/svg">
<path d="M312.093 155.705C333.796 66.3419 414.373 4.19902e-06 510.435 0C623.141 7.48817e-06 714.53 91.3217 714.53 204.001C714.53 234.489 702.993 267.736 687.658 298.725C676.262 321.752 662.082 344.886 646.955 366.649C645.466 360.213 643.157 355.192 641.724 352.292C638.948 346.678 635.542 341.453 632.29 336.944C627.943 330.916 622.698 324.564 616.89 318.1C625.911 303.987 634.146 289.688 641.08 275.676C655.082 247.381 662.562 222.671 662.562 204.001C662.562 120.049 594.465 51.9687 510.435 51.9687C442.666 51.9687 385.262 96.2499 365.582 157.425C355.538 155.547 345.477 154.489 335.537 154.489C327.619 154.489 319.798 154.902 312.093 155.705Z" fill="white"/>
<path d="M313.112 248.05C320.403 246.798 327.895 246.143 335.537 246.143L336.204 246.147C344.862 246.26 356.169 248.543 369.804 253.357C372.635 260.496 375.968 267.953 379.79 275.676C393.533 303.447 412.383 332.345 432.347 358.687C452.299 385.011 472.884 408.152 489.725 424.464C491.302 425.991 492.83 427.444 494.307 428.821C489.111 433.031 483.727 437.263 478.19 441.47C469.669 447.946 460.91 454.27 452.046 460.311C433.392 442.058 411.693 417.471 390.931 390.077C369.615 361.953 348.807 330.238 333.213 298.725C325.046 282.221 317.956 265.077 313.112 248.05Z" fill="white"/>
<path d="M734.102 181.03C823.465 202.733 889.807 283.309 889.807 379.372C889.807 492.078 798.485 583.467 685.806 583.467C655.318 583.467 622.071 571.929 591.082 556.594C568.055 545.199 544.921 531.019 523.158 515.892C529.594 514.403 534.615 512.094 537.515 510.66C543.129 507.884 548.354 504.478 552.863 501.227C558.891 496.88 565.243 491.635 571.707 485.827C585.82 494.848 600.118 503.083 614.131 510.017C642.426 524.019 667.136 531.498 685.806 531.498C769.758 531.498 837.838 463.402 837.838 379.372C837.838 311.603 793.557 254.199 732.382 234.519C734.26 224.475 735.318 214.414 735.318 204.474C735.318 196.555 734.905 188.734 734.102 181.03Z" fill="white"/>
<path d="M641.757 182.048C643.009 189.339 643.664 196.832 643.664 204.474L643.659 205.141C643.547 213.799 641.264 225.105 636.45 238.741C629.311 241.571 621.854 244.905 614.131 248.727C586.359 262.469 557.462 281.319 531.12 301.284C504.796 321.235 481.655 341.821 465.343 358.662C463.816 360.238 462.363 361.766 460.986 363.244C456.776 358.048 452.544 352.664 448.337 347.127C441.861 338.606 435.537 329.846 429.496 320.983C447.749 302.329 472.336 280.629 499.73 259.868C527.854 238.552 559.569 217.744 591.082 202.149C607.586 193.982 624.73 186.892 641.757 182.048Z" fill="white"/>
<path d="M335.065 175.276C365.553 175.276 398.8 186.814 429.789 202.149C452.9 213.586 476.119 227.829 497.951 243.018C491.854 244.509 487.093 246.703 484.3 248.083C478.686 250.859 473.461 254.265 468.952 257.517C462.801 261.952 456.312 267.321 449.712 273.27C435.421 264.111 420.934 255.751 406.739 248.727C378.444 234.724 353.735 227.245 335.065 227.245C251.113 227.245 183.032 295.342 183.032 379.372C183.032 447.469 227.744 505.1 289.379 524.507C287.534 534.457 286.497 544.423 286.497 554.27C286.497 562.268 286.918 570.167 287.737 577.946C197.885 556.592 131.063 475.781 131.063 379.372C131.063 266.666 222.385 175.276 335.065 175.276Z" fill="white"/>
<path d="M560.387 394.954C564.743 400.319 569.123 405.886 573.479 411.617C579.815 419.955 586.006 428.521 591.929 437.19C573.621 455.971 548.813 477.903 521.141 498.877C493.016 520.193 461.301 541 429.789 556.594C413.576 564.617 396.744 571.599 380.013 576.435C378.79 569.226 378.151 561.821 378.151 554.27C378.151 545.438 380.471 533.75 385.516 519.565C392.321 516.83 399.411 513.644 406.739 510.017C434.511 496.274 463.408 477.424 489.75 457.46C516.074 437.508 539.216 416.923 555.528 400.082C557.242 398.311 558.861 396.6 560.387 394.954Z" fill="white"/>
<path d="M306.34 554.742C306.34 524.254 317.878 491.007 333.213 460.018C344.65 436.907 358.893 413.688 374.082 391.856C375.572 397.953 377.766 402.714 379.147 405.507C381.922 411.121 385.329 416.346 388.58 420.854C393.016 427.006 398.384 433.495 404.334 440.095C395.174 454.386 386.814 468.873 379.79 483.067C365.788 511.363 358.309 536.072 358.309 554.742C358.309 638.694 426.405 706.775 510.435 706.775C578.532 706.775 636.163 662.063 655.57 600.428C665.521 602.273 675.486 603.31 685.333 603.31C693.331 603.31 701.23 602.889 709.01 602.07C687.656 691.922 606.844 758.744 510.435 758.744C397.729 758.744 306.34 667.422 306.34 554.742Z" fill="white"/>
<path d="M526.017 329.42C531.382 325.064 536.949 320.683 542.68 316.328C551.018 309.992 559.585 303.801 568.253 297.878C587.034 316.186 608.967 340.993 629.94 368.666C651.256 396.791 672.063 428.506 687.658 460.018C695.681 476.231 702.662 493.063 707.498 509.794C700.289 511.017 692.884 511.656 685.333 511.656C676.501 511.656 664.813 509.336 650.628 504.29C647.893 497.485 644.707 490.396 641.08 483.067C627.337 455.296 608.488 426.399 588.523 400.057C568.572 373.733 547.986 350.591 531.145 334.279C529.375 332.564 527.663 330.946 526.017 329.42Z" fill="white"/>
<path d="M1199.83 148.248C1211.92 148.248 1224.88 149.256 1238.71 151.272C1252.82 153.288 1263.91 156.168 1271.97 159.912C1274.56 160.776 1276.29 161.928 1277.15 163.368C1278.02 164.52 1278.59 166.68 1278.88 169.848L1284.07 229.896C1284.07 230.76 1283.35 231.336 1281.91 231.624C1280.75 231.912 1279.89 231.48 1279.31 230.328C1269.81 208.152 1256.85 190.728 1240.43 178.056C1224.31 165.384 1205.15 159.048 1182.98 159.048C1163.68 159.048 1147.27 163.944 1133.73 173.736C1120.48 183.528 1110.4 197.208 1103.49 214.776C1096.87 232.056 1093.55 252.216 1093.55 275.256C1093.55 295.128 1096 313.848 1100.9 331.416C1105.79 348.696 1112.71 363.96 1121.63 377.208C1130.56 390.168 1141.22 400.392 1153.6 407.88C1165.99 415.368 1179.67 419.112 1194.64 419.112C1213.07 419.112 1229.49 413.064 1243.89 400.968C1258.58 388.872 1271.68 370.152 1283.2 344.808C1283.78 343.656 1284.79 343.224 1286.23 343.512C1287.67 343.8 1288.39 344.376 1288.39 345.24L1281.91 403.992C1281.33 407.448 1280.61 409.752 1279.75 410.904C1279.17 411.768 1277.59 412.776 1274.99 413.928C1261.75 418.824 1248.35 422.424 1234.82 424.728C1221.57 427.032 1208.61 428.184 1195.94 428.184C1168 428.184 1144.1 424.008 1124.23 415.656C1104.35 407.016 1088.08 395.784 1075.41 381.96C1063.03 367.848 1053.81 352.584 1047.76 336.168C1042 319.464 1039.12 303.048 1039.12 286.92C1039.12 265.608 1043.44 246.456 1052.08 229.464C1061.01 212.472 1072.96 197.928 1087.94 185.832C1103.2 173.736 1120.34 164.52 1139.35 158.184C1158.64 151.56 1178.8 148.248 1199.83 148.248ZM1409.75 293.832L1416.23 281.736H1505.23L1508.25 293.832H1409.75ZM1625.32 417.816C1626.76 417.816 1627.48 418.68 1627.48 420.408C1627.48 422.136 1626.76 423 1625.32 423C1616.68 423 1607.61 422.712 1598.11 422.136C1588.89 421.56 1579.96 421.272 1571.32 421.272C1561.53 421.272 1553.03 421.56 1545.83 422.136C1538.63 422.712 1530.57 423 1521.64 423C1520.49 423 1519.91 422.136 1519.91 420.408C1519.91 418.68 1520.49 417.816 1521.64 417.816C1533.45 417.816 1540.22 415.512 1541.95 410.904C1543.96 406.008 1541.37 396.504 1534.17 382.392L1446.47 209.16L1467.64 172.008L1381.67 361.656C1373.9 378.936 1373.75 392.616 1381.24 402.696C1388.73 412.776 1400.54 417.816 1416.67 417.816C1418.11 417.816 1418.83 418.68 1418.83 420.408C1418.83 422.136 1418.11 423 1416.67 423C1408.03 423 1400.11 422.712 1392.91 422.136C1385.71 421.56 1376.63 421.272 1365.69 421.272C1354.46 421.272 1345.39 421.56 1338.47 422.136C1331.85 422.712 1323.64 423 1313.85 423C1312.7 423 1312.12 422.136 1312.12 420.408C1312.12 418.68 1312.7 417.816 1313.85 417.816C1321.63 417.816 1328.25 416.232 1333.72 413.064C1339.48 409.608 1345.1 403.56 1350.57 394.92C1356.33 385.992 1362.81 373.464 1370.01 357.336L1463.75 151.272C1464.04 150.408 1465.34 149.976 1467.64 149.976C1469.95 149.688 1471.24 150.12 1471.53 151.272L1579.53 363.816C1586.44 377.352 1592.35 388.152 1597.24 396.216C1602.43 403.992 1607.18 409.608 1611.5 413.064C1616.11 416.232 1620.71 417.816 1625.32 417.816ZM1731.52 388.008C1731.52 396.36 1732.24 402.696 1733.68 407.016C1735.12 411.336 1738 414.216 1742.32 415.656C1746.64 417.096 1753.26 417.816 1762.19 417.816C1763.05 417.816 1763.48 418.68 1763.48 420.408C1763.48 422.136 1763.05 423 1762.19 423C1754.7 423 1746.35 422.856 1737.13 422.568C1727.92 422.28 1717.84 422.136 1706.89 422.136C1696.52 422.136 1686.59 422.28 1677.08 422.568C1667.58 422.856 1659.08 423 1651.6 423C1651.02 423 1650.73 422.136 1650.73 420.408C1650.73 418.68 1651.02 417.816 1651.6 417.816C1660.52 417.816 1667.15 417.096 1671.47 415.656C1676.08 414.216 1679.1 411.336 1680.54 407.016C1682.27 402.696 1683.13 396.36 1683.13 388.008V187.992C1683.13 179.64 1682.27 173.448 1680.54 169.416C1679.1 165.096 1676.08 162.216 1671.47 160.776C1667.15 159.048 1660.52 158.184 1651.6 158.184C1651.02 158.184 1650.73 157.32 1650.73 155.592C1650.73 153.864 1651.02 153 1651.6 153C1659.08 153 1667.58 153.288 1677.08 153.864C1686.59 154.152 1696.52 154.296 1706.89 154.296C1717.84 154.296 1727.92 154.152 1737.13 153.864C1746.64 153.288 1754.99 153 1762.19 153C1763.05 153 1763.48 153.864 1763.48 155.592C1763.48 157.32 1763.05 158.184 1762.19 158.184C1753.55 158.184 1746.92 159.048 1742.32 160.776C1738 162.504 1735.12 165.528 1733.68 169.848C1732.24 174.168 1731.52 180.504 1731.52 188.856V388.008ZM1844.61 368.136V162.936L1857.57 163.8V368.136C1857.57 383.4 1860.74 395.496 1867.08 404.424C1873.41 413.352 1882.2 417.816 1893.43 417.816C1894 417.816 1894.29 418.68 1894.29 420.408C1894.29 422.136 1894 423 1893.43 423C1887.09 423 1880.47 422.856 1873.56 422.568C1866.93 422.28 1859.59 422.136 1851.52 422.136C1842.88 422.136 1834.39 422.28 1826.04 422.568C1817.97 422.856 1810.48 423 1803.57 423C1802.71 423 1802.28 422.136 1802.28 420.408C1802.28 418.68 1802.71 417.816 1803.57 417.816C1816.24 417.816 1826.18 413.352 1833.38 404.424C1840.87 395.496 1844.61 383.4 1844.61 368.136ZM2064.93 429.48C2064.93 430.344 2064.21 430.776 2062.77 430.776C2061.62 431.064 2060.76 431.064 2060.18 430.776L1847.2 188.424C1836.84 176.616 1828.05 168.696 1820.85 164.664C1813.65 160.344 1806.45 158.184 1799.25 158.184C1798.68 158.184 1798.39 157.32 1798.39 155.592C1798.39 153.864 1798.68 153 1799.25 153C1805.01 153 1810.92 153.144 1816.96 153.432C1823.01 153.72 1828.63 153.864 1833.81 153.864C1844.18 153.864 1853.54 153.72 1861.89 153.432C1870.24 153.144 1876.72 153 1881.33 153C1885.08 153 1887.81 154.728 1889.54 158.184C1891.56 161.352 1896.02 167.112 1902.93 175.464L2061.48 358.2L2064.93 429.48ZM2064.93 208.296V429.48L2052.4 416.52V208.296C2052.4 193.032 2049.24 180.936 2042.9 172.008C2036.56 162.792 2027.78 158.184 2016.55 158.184C2015.97 158.184 2015.68 157.32 2015.68 155.592C2015.68 153.864 2015.97 153 2016.55 153C2022.88 153 2029.36 153.288 2035.99 153.864C2042.9 154.152 2050.39 154.296 2058.45 154.296C2066.23 154.296 2073.86 154.152 2081.35 153.864C2088.84 153.288 2095.75 153 2102.08 153C2102.66 153 2102.95 153.864 2102.95 155.592C2102.95 157.32 2102.66 158.184 2102.08 158.184C2090.56 158.184 2081.49 162.792 2074.87 172.008C2068.24 180.936 2064.93 193.032 2064.93 208.296ZM1108.9 562.28C1114.08 562.28 1118.34 561.504 1121.71 559.952C1125.07 558.271 1127.53 555.943 1129.08 552.968C1130.76 549.864 1131.6 546.243 1131.6 542.104C1131.6 535.767 1129.73 530.852 1125.97 527.36C1122.35 523.868 1116.66 522.122 1108.9 522.122H1080V562.28H1108.9ZM1158.37 542.104C1158.37 547.148 1157.47 552.192 1155.66 557.236C1153.85 562.151 1151 566.677 1147.12 570.816C1143.24 574.825 1138.2 578.059 1131.99 580.516C1125.91 582.973 1118.47 584.202 1109.68 584.202H1080V636H1053.81V500.2H1109.68C1120.67 500.2 1129.73 502.14 1136.84 506.02C1144.08 509.771 1149.45 514.879 1152.94 521.346C1156.56 527.683 1158.37 534.603 1158.37 542.104ZM1244.05 522.122H1237.06L1197.1 636H1170.13L1218.83 500.2H1262.09L1310.78 636H1283.82L1244.05 522.122ZM1199.62 582.844H1278.77V604.766H1199.62V582.844ZM1407.06 542.104C1407.06 536.025 1405.18 531.175 1401.43 527.554C1397.81 523.933 1392.12 522.122 1384.36 522.122H1355.45V562.28H1384.36C1389.53 562.28 1393.8 561.504 1397.16 559.952C1400.53 558.271 1402.98 555.943 1404.54 552.968C1406.22 549.864 1407.06 546.243 1407.06 542.104ZM1385.14 500.2C1396.13 500.2 1405.18 502.14 1412.3 506.02C1419.54 509.771 1424.91 514.879 1428.4 521.346C1432.02 527.683 1433.83 534.603 1433.83 542.104C1433.83 547.148 1432.92 552.192 1431.11 557.236C1429.3 562.151 1426.46 566.677 1422.58 570.816C1418.7 574.825 1413.65 578.059 1407.45 580.516C1401.37 582.973 1393.93 584.202 1385.14 584.202H1355.45V636H1329.26V500.2H1385.14ZM1399.88 575.472L1436.55 636H1407.25L1372.14 575.472H1399.88ZM1453.86 500.2H1564.05V522.122H1522.15V636H1495.96V522.122H1453.86V500.2ZM1699.81 500.2V636H1673.04L1613.67 541.716V636H1587.48V500.2H1614.06L1673.62 594.484V500.2H1699.81ZM1825.49 522.122H1756.23V556.654H1808.03V577.8H1756.23V614.078H1825.49V636H1730.04V500.2H1825.49V522.122ZM1929.74 542.104C1929.74 536.025 1927.87 531.175 1924.12 527.554C1920.5 523.933 1914.81 522.122 1907.05 522.122H1878.14V562.28H1907.05C1912.22 562.28 1916.49 561.504 1919.85 559.952C1923.21 558.271 1925.67 555.943 1927.22 552.968C1928.9 549.864 1929.74 546.243 1929.74 542.104ZM1907.82 500.2C1918.82 500.2 1927.87 502.14 1934.98 506.02C1942.22 509.771 1947.59 514.879 1951.08 521.346C1954.71 527.683 1956.52 534.603 1956.52 542.104C1956.52 547.148 1955.61 552.192 1953.8 557.236C1951.99 562.151 1949.14 566.677 1945.26 570.816C1941.38 574.825 1936.34 578.059 1930.13 580.516C1924.05 582.973 1916.62 584.202 1907.82 584.202H1878.14V636H1851.95V500.2H1907.82ZM1922.57 575.472L1959.23 636H1929.94L1894.82 575.472H1922.57ZM2002.15 597.588C2002.8 601.209 2004.22 604.378 2006.42 607.094C2008.62 609.81 2011.47 611.944 2014.96 613.496C2018.58 614.919 2022.78 615.63 2027.57 615.63C2035.07 615.63 2040.7 613.949 2044.45 610.586C2048.2 607.094 2050.07 602.891 2050.07 597.976C2050.07 594.096 2048.91 590.863 2046.58 588.276C2044.25 585.689 2040.95 583.491 2036.69 581.68C2032.55 579.869 2027.7 578.123 2022.14 576.442C2016.96 574.89 2011.85 573.209 2006.81 571.398C2001.77 569.587 1997.18 567.324 1993.04 564.608C1988.9 561.892 1985.6 558.4 1983.14 554.132C1980.81 549.735 1979.65 544.238 1979.65 537.642C1979.65 529.365 1981.66 522.316 1985.66 516.496C1989.8 510.676 1995.43 506.279 2002.54 503.304C2009.66 500.329 2017.87 498.842 2027.18 498.842C2035.07 498.842 2042.18 500.006 2048.52 502.334C2054.86 504.533 2060.16 507.831 2064.43 512.228C2068.83 516.496 2072.06 521.799 2074.13 528.136L2049.88 534.732C2049.23 531.887 2047.81 529.429 2045.61 527.36C2043.41 525.291 2040.76 523.674 2037.66 522.51C2034.55 521.217 2031.19 520.57 2027.57 520.57C2023.69 520.441 2020.13 521.023 2016.9 522.316C2013.67 523.609 2011.08 525.485 2009.14 527.942C2007.2 530.399 2006.23 533.245 2006.23 536.478C2006.23 540.099 2007.33 543.009 2009.53 545.208C2011.73 547.277 2014.64 549.088 2018.26 550.64C2021.88 552.063 2025.95 553.485 2030.48 554.908C2035.91 556.46 2041.34 558.271 2046.77 560.34C2052.21 562.28 2057.19 564.802 2061.71 567.906C2066.24 570.881 2069.86 574.696 2072.58 579.352C2075.42 584.008 2076.84 589.893 2076.84 597.006C2076.84 604.507 2075.03 611.297 2071.41 617.376C2067.92 623.455 2062.62 628.305 2055.5 631.926C2048.39 635.547 2039.47 637.358 2028.73 637.358C2019.94 637.358 2011.92 636.065 2004.68 633.478C1997.56 630.891 1991.68 627.141 1987.02 622.226C1982.37 617.182 1979.33 611.233 1977.9 604.378L2002.15 597.588Z" fill="white"/>
</svg>
